<?xml version="1.0" encoding="UTF-8" standalone="no"?>
<!-- Created with Inkscape (http://www.inkscape.org/) -->

<svg
   width="297mm"
   height="210mm"
   viewBox="0 0 297 210"
   version="1.1"
   id="svg1"
   sodipodi:docname="mttc_logo.svg"
   inkscape:version="1.4.2 (ebf0e940d0, 2025-05-08)"
   xml:space="preserve"
   xmlns:inkscape="http://www.inkscape.org/namespaces/inkscape"
   xmlns:sodipodi="http://sodipodi.sourceforge.net/DTD/sodipodi-0.dtd"
   xmlns="http://www.w3.org/2000/svg"
   xmlns:svg="http://www.w3.org/2000/svg"><sodipodi:namedview
     id="namedview1"
     pagecolor="#ffffff"
     bordercolor="#000000"
     borderopacity="0.25"
     inkscape:showpageshadow="2"
     inkscape:pageopacity="0.0"
     inkscape:pagecheckerboard="0"
     inkscape:deskcolor="#d1d1d1"
     inkscape:document-units="mm"
     inkscape:zoom="0.32"
     inkscape:cx="342.1875"
     inkscape:cy="181.25"
     inkscape:window-width="1280"
     inkscape:window-height="651"
     inkscape:window-x="0"
     inkscape:window-y="32"
     inkscape:window-maximized="0"
     inkscape:current-layer="svg1" /><defs
     id="defs1"><marker
       style="overflow:visible"
       id="Triangle"
       refX="0"
       refY="0"
       orient="auto-start-reverse"
       inkscape:stockid="Triangle arrow"
       markerWidth="0.5"
       markerHeight="0.5"
       viewBox="0 0 1 1"
       inkscape:isstock="true"
       inkscape:collect="always"
       preserveAspectRatio="xMidYMid"
       markerUnits="strokeWidth"><path
         transform="scale(0.5)"
         style="fill:context-stroke;fill-rule:evenodd;stroke:context-stroke;stroke-width:1pt"
         d="M 5.77,0 -2.88,5 V -5 Z"
         id="path135" /></marker></defs><path
     style="fill:#611329;fill-opacity:1;stroke:none;stroke-width:2.89078;stroke-opacity:1"
     d="m 51.962022,176.51139 c 0,-0.18646 0.06418,-0.88831 0.142227,-1.55949 0.07834,-0.67118 0.251787,-2.27897 0.385688,-3.57292 0.133843,-1.29394 0.308157,-2.91434 0.387335,-3.60092 0.07921,-0.68656 0.272022,-2.45821 0.428616,-3.93699 0.15668,-1.47877 0.327699,-3.07758 0.380311,-3.55291 0.05261,-0.47533 0.227793,-2.11735 0.389619,-3.64894 0.161595,-1.53159 0.401789,-3.73888 0.533609,-4.90513 0.13182,-1.16623 0.301248,-2.76503 0.376582,-3.55289 0.07545,-0.78788 0.202354,-1.99423 0.282429,-2.68082 0.08007,-0.68656 0.233575,-2.09093 0.341343,-3.1208 0.107826,-1.02987 0.237911,-2.23977 0.289454,-2.68868 0.05146,-0.44891 0.223168,-2.04772 0.381727,-3.55292 0.158415,-1.50517 0.353514,-3.32003 0.433444,-4.03301 0.08007,-0.71298 0.188768,-1.68524 0.241958,-2.16057 0.128929,-1.15087 0.555666,-5.16143 0.715323,-6.72169 0.307175,-3.00141 0.653027,-6.14811 0.678929,-6.17728 0.01445,-0.0174 1.079735,0.0173 2.365033,0.0769 1.285298,0.0598 2.990974,0.0786 3.790419,0.0425 1.67902,-0.0763 1.46895,-0.39465 1.71701,2.60118 0.0786,0.95063 0.1853,2.11732 0.23704,2.59265 0.0517,0.47533 0.13905,1.49078 0.19397,2.25657 0.0552,0.7658 0.12199,1.50084 0.1483,1.63344 0.026,0.13268 0.0864,0.75912 0.13298,1.39234 0.0465,0.63323 0.17431,2.10194 0.28387,3.26384 0.23907,2.53593 0.47799,5.17218 0.92271,10.1786 0.18298,2.05971 0.37606,4.19866 0.4291,4.7532 0.0532,0.55453 0.16247,1.76444 0.24312,2.68868 0.0807,0.92424 0.23213,2.56626 0.3368,3.64894 0.24167,2.50333 0.35123,3.7083 0.52968,5.83201 0.0789,0.93826 0.20611,2.3757 0.28272,3.19428 0.1402,1.49621 0.36496,3.98358 0.5293,5.8575 0.15437,1.76098 0.76296,8.476 0.81988,9.04739 0.0515,0.51603 0.0413,0.55188 -0.16564,0.59402 -0.12112,0.026 -4.48759,0.0688 -9.702927,0.098 -9.482421,0.0532 -9.482421,0.0532 -9.482421,-0.2859 z m 53.767888,-11.28491 c -1.8305,-0.15177 -4.94173,-0.88802 -6.283772,-1.4871 -3.33119,-1.48711 -5.47626,-2.92478 -7.42985,-4.97966 -0.79228,-0.83335 -0.80509,-0.84778 -1.09087,-1.22714 -0.14454,-0.19165 -0.31966,-0.40635 -0.38936,-0.47695 -0.40638,-0.41144 -2.05326,-3.12056 -1.95607,-3.21772 0.0144,-0.0145 0.47735,0.20091 1.02897,0.47822 2.36807,1.19065 5.55221,2.25906 8.20478,2.753 7.667882,1.42793 15.320182,1.08529 22.095682,-0.98934 2.75982,-0.84503 5.61641,-2.24694 7.52391,-3.69242 0.28822,-0.21854 0.53671,-0.38473 0.552,-0.36944 0.0832,0.0833 -1.42261,3.28468 -1.60912,3.42098 -0.0549,0.0402 -0.53465,0.7429 -0.90742,1.32924 -0.0529,0.083 -0.13934,0.20033 -0.19195,0.26103 -0.25814,0.29524 -0.87767,1.0517 -0.98246,1.19933 -0.14772,0.20785 -1.47875,1.49531 -1.99429,1.92864 -0.21131,0.1775 -0.40569,0.34484 -0.43211,0.3717 -0.61799,0.62895 -4.79211,3.07226 -5.24853,3.07226 -0.0289,0 -0.1879,0.061 -0.35438,0.13558 -2.68817,1.20459 -6.85944,1.79451 -10.53504,1.48988 z m 17.29016,-15.34296 c -1.09049,-0.23357 -2.4384,-1.73276 -1.82437,-2.02895 1.01692,-0.49056 1.44036,-0.59119 1.44036,-0.34229 0,0.46885 1.01047,0.98818 1.67873,0.86284 0.59391,-0.11159 0.81792,-0.41954 0.81792,-1.12498 0,-0.8402 -0.11419,-0.93771 -1.72846,-1.47707 -1.64095,-0.54824 -2.14536,-1.15001 -2.15452,-2.57051 -0.0116,-1.77763 0.91487,-2.64894 2.81374,-2.64651 1.18819,0.002 1.97203,0.48189 2.42256,1.4847 0.19194,0.42741 0.13442,0.57007 -0.27058,0.67173 -0.13963,0.035 -0.42671,0.14743 -0.63826,0.24948 -0.46573,0.2249 -0.44382,0.22403 -0.44775,0.0173 -0.0173,-0.87989 -2.01747,-1.21687 -2.24255,-0.37768 -0.25092,0.93523 0.0717,1.44036 1.14267,1.79049 2.15568,0.70469 2.61046,1.13987 2.71007,2.59315 0.0931,1.35615 -0.37528,2.26093 -1.40708,2.7188 -0.46299,0.20554 -1.73109,0.30362 -2.31254,0.17894 z m -33.896562,-4.62319 c 0,-4.60917 0,-4.60917 0.69619,-4.61981 1.30261,-0.0202 1.18817,-0.0734 1.37373,0.64427 0.0807,0.31165 0.27115,0.97717 0.42329,1.47889 0.15235,0.50172 0.43637,1.45238 0.63135,2.11255 0.19484,0.66017 0.37693,1.23798 0.40433,1.28406 0.026,0.046 0.19051,-0.38607 0.36239,-0.96026 0.53017,-1.77086 1.17672,-4.00734 1.2387,-4.2848 0.0633,-0.28272 0.0376,-0.27607 1.0636,-0.27607 0.29047,0 0.61499,0.003 0.72111,0.006 0.19079,0.006 0.19281,0.0561 0.16795,4.59117 -0.026,4.58518 -0.026,4.58518 -0.7211,4.61339 -0.69619,0.0289 -0.69619,0.0289 -0.69619,-2.89908 0,-1.61002 -0.0373,-2.9503 -0.0827,-2.97845 -0.0454,-0.0289 -0.1801,0.28272 -0.29914,0.69052 -0.21132,0.72472 -0.70853,2.35101 -1.02652,3.35833 -0.15928,0.50412 -0.15928,0.50412 -0.71489,0.50412 -0.55575,0 -0.55575,0 -0.90516,-1.12827 -0.19223,-0.62056 -0.45188,-1.44137 -0.57714,-1.82399 -0.12517,-0.38262 -0.27434,-0.86877 -0.33126,-1.08029 -0.22952,-0.85231 -0.28821,-0.34397 -0.28821,2.49616 0,2.88075 0,2.88075 -0.72018,2.88075 -0.72018,0 -0.72018,0 -0.72018,-4.60917 z m 8.35412,4.52141 c 0,-0.0523 0.041,-0.19455 0.0908,-0.31582 0.05,-0.12141 0.35785,-1.10641 0.68417,-2.18907 0.32634,-1.08268 0.75582,-2.48705 0.95441,-3.1208 0.3227,-1.02975 0.891412,-2.89046 1.019872,-3.33685 0.0815,-0.28359 1.15386,-0.24196 1.23593,0.048 0.1905,0.67364 1.35143,4.47074 1.68061,5.4974 0.4431,1.38202 1.05588,3.38501 1.05588,3.45142 0,0.0335 -0.37545,0.0486 -0.83436,0.0332 -0.83434,-0.0289 -0.83434,-0.0289 -0.91808,-0.36383 -0.29168,-1.17048 -0.12286,-1.05627 -1.56074,-1.05627 -1.467152,0 -1.419342,-0.026 -1.632942,0.91222 -0.10927,0.48013 -0.10927,0.48013 -0.94239,0.50788 -0.50554,0.0173 -0.83321,-0.009 -0.83321,-0.0674 z m 4.160362,-3.12907 c -0.0307,-0.35154 -0.73128,-2.8327 -0.79994,-2.8327 -0.0373,0 -0.16217,0.33487 -0.27752,0.74417 -0.11563,0.40931 -0.29786,1.05644 -0.40517,1.43808 -0.10725,0.38164 -0.174312,0.72732 -0.14916,0.7682 0.026,0.0408 0.40656,0.0743 0.84729,0.0743 0.7429,0 0.80011,-0.0145 0.78461,-0.19195 z m 4.74148,3.15639 c -0.0373,-0.0373 -0.0676,-1.76722 -0.0676,-3.84457 0,-3.77694 0,-3.77694 -1.00828,-3.77694 -1.00824,0 -1.00824,0 -1.00824,-0.76528 0,-0.76527 0,-0.76527 2.67319,-0.79222 3.34888,-0.0338 3.00609,-0.12285 2.97215,0.77308 -0.0289,0.7364 -0.0289,0.7364 -0.93687,0.76427 -0.5777,0.0173 -0.93633,0.0702 -0.98399,0.14396 -0.0413,0.0639 -0.0731,1.77977 -0.0705,3.81311 0.006,3.69693 0.006,3.69693 -0.74888,3.72451 -0.41431,0.0145 -0.78369,-0.003 -0.82087,-0.0399 z m 4.73365,-4.54873 c 0,-4.60917 0,-4.60917 0.81621,-4.60917 0.81622,0 0.81622,0 0.81622,4.60917 0,4.60917 0,4.60917 -0.81622,4.60917 -0.81621,0 -0.81621,0 -0.81621,-4.60917 z m 3.55291,0.0173 c 0,-2.52622 0.0173,-4.61116 0.0399,-4.63316 0.0231,-0.0231 1.16703,-0.0289 2.54466,-0.0116 2.50478,0.026 2.50478,0.026 2.50478,0.79219 0,0.76511 0,0.76511 -1.73149,0.76511 -1.73149,0 -1.73149,0 -1.70444,1.12827 0.026,1.1283 0.026,1.1283 1.49142,1.15481 1.46438,0.026 1.46438,0.026 1.46438,0.79218 0,0.76571 0,0.76571 -1.48838,0.76571 -1.48837,0 -1.48837,0 -1.48837,1.1523 0,1.15229 0,1.15229 1.72842,1.15229 1.72846,0 1.72846,0 1.72846,0.7682 0,0.76819 0,0.76819 -2.54467,0.76819 -2.54464,0 -2.54464,0 -2.54464,-4.59319 z m -43.018982,-3.59508 c 0,-0.13298 0.26017,-2.40684 0.86469,-7.55974 0.21391,-1.82209 0.4524,-3.8746 0.53028,-4.56119 0.0778,-0.68656 0.22664,-1.9829 0.33042,-2.88072 0.10378,-0.89781 0.30055,-2.60467 0.43711,-3.79296 0.13645,-1.18831 0.28474,-2.19714 0.32926,-2.24183 0.0445,-0.0448 0.39884,-0.13644 0.78731,-0.2038 2.43707,-0.42318 5.72469,-1.43157 8.0921,-2.48199 1.09855,-0.48742 4.23629,-2.12227 4.48044,-2.33442 0.0833,-0.0726 0.18154,-0.13182 0.21826,-0.13182 0.12141,0 3.08377,-1.99085 3.27008,-2.1976 0.1006,-0.11158 0.2301,-0.20322 0.28821,-0.20351 0.0578,-2.6e-4 0.50065,-0.33516 0.98408,-0.7442 0.48339,-0.40905 1.12572,-0.93818 1.4274,-1.17583 0.30169,-0.23762 0.80737,-0.68057 1.1238,-0.98425 0.6081,-0.58362 0.776,-0.69257 0.51791,-0.33608 -0.0862,0.11881 -0.23155,0.32408 -0.32319,0.45611 -0.17778,0.25583 -0.79401,1.08427 -1.65636,2.22668 -0.29047,0.38479 -0.62513,0.8422 -0.74365,1.01642 -0.11853,0.17432 -0.25988,0.36924 -0.31432,0.43333 -0.4383,0.5171 -2.68698,3.62677 -2.68698,3.71578 0,0.0538 -0.0376,0.0977 -0.0833,0.0977 -0.046,0 -0.19195,0.16188 -0.32464,0.3601 -0.13268,0.19802 -0.35446,0.4897 -0.49276,0.64814 -0.13818,0.15842 -0.25179,0.33129 -0.25207,0.3841 -3.2e-4,0.0529 -0.122,0.22577 -0.27029,0.3841 -0.1483,0.15841 -0.43983,0.52945 -0.64771,0.82445 -0.20785,0.29498 -0.56899,0.7919 -0.80245,1.10428 -0.23358,0.31235 -0.70879,0.95526 -1.05626,1.42868 -0.34748,0.47345 -1.05034,1.42408 -1.56186,2.11255 -1.63306,2.19789 -3.83925,5.18531 -4.81139,6.51518 -0.20033,0.27405 -0.51305,0.69252 -0.69514,0.93017 -1.00385,1.31013 -2.06156,2.77954 -2.06156,2.86392 0,0.0532 -0.0335,0.1113 -0.0749,0.12893 -0.041,0.0173 -0.35441,0.3993 -0.69619,0.84821 -0.34181,0.44891 -0.65386,0.83061 -0.69347,0.84822 -0.0396,0.0173 -0.072,0.0896 -0.072,0.16014 0,0.0705 -0.0341,0.14252 -0.076,0.16015 -0.0416,0.0174 -0.22548,0.24803 -0.40809,0.51213 -0.1827,0.26393 -0.35496,0.50173 -0.38274,0.52812 -0.17807,0.16911 -0.66967,0.8609 -0.66967,0.94205 0,0.0541 -0.0324,0.11274 -0.072,0.13037 -0.0396,0.0173 -0.43301,0.51815 -0.87425,1.11229 -0.8226,1.10772 -0.87819,1.16833 -0.87819,0.95806 z m -20.789303,-2.30633 c -0.580931,-0.78421 -1.100896,-1.47681 -1.155445,-1.53916 -0.05464,-0.0624 -0.204667,-0.26451 -0.33348,-0.44943 -0.128929,-0.18472 -0.269421,-0.3793 -0.312349,-0.43212 -0.04278,-0.0529 -0.552341,-0.74249 -1.132029,-1.53263 -0.579717,-0.79014 -1.136886,-1.54633 -1.238179,-1.68041 -0.183275,-0.24282 -0.54945,-0.73882 -2.164008,-2.93252 -0.466456,-0.63375 -0.884607,-1.16669 -0.929241,-1.1843 -0.04452,-0.0173 -0.08123,-0.0763 -0.08123,-0.13037 0,-0.0812 -0.491664,-0.77279 -0.669678,-0.94205 -0.02891,-0.026 -0.200042,-0.26421 -0.382739,-0.52814 -0.182697,-0.26393 -0.366378,-0.49453 -0.408091,-0.51213 -0.04163,-0.0173 -0.07574,-0.0931 -0.07574,-0.16796 0,-0.0749 -0.03382,-0.13615 -0.07516,-0.13615 -0.04134,0 -0.150899,-0.12806 -0.243404,-0.28446 -0.09251,-0.15639 -0.220566,-0.34015 -0.284742,-0.40809 -0.06418,-0.0679 -0.234731,-0.28185 -0.37927,-0.4753 -0.144539,-0.19339 -0.31972,-0.40954 -0.389474,-0.48013 -0.06967,-0.0705 -0.152345,-0.1931 -0.183276,-0.27231 -0.04249,-0.1084 -2.152243,-2.97562 -2.649659,-3.60093 -0.04192,-0.0529 -0.182408,-0.24716 -0.312176,-0.43211 -0.129796,-0.18472 -0.258724,-0.35771 -0.286765,-0.3841 -0.02891,-0.026 -0.523867,-0.69619 -1.101878,-1.48837 -0.577983,-0.79222 -1.332881,-1.81695 -1.677491,-2.27719 -0.344638,-0.46024 -1.177443,-1.58371 -1.850734,-2.49662 -0.673292,-0.91291 -1.688736,-2.2834 -2.256572,-3.04552 -0.567835,-0.76213 -1.097253,-1.48002 -1.17646,-1.59534 -0.07921,-0.11534 -0.331543,-0.45654 -0.560696,-0.75831 -0.545721,-0.71867 -0.480996,-0.73798 0.236466,-0.0705 0.322351,0.2998 0.857579,0.76117 1.189411,1.02524 0.331862,0.26393 0.694539,0.56654 0.805979,0.67217 0.720035,0.68248 4.338019,3.23539 5.050538,3.56372 0.07921,0.0364 0.209003,0.11823 0.288211,0.18154 0.07921,0.0633 0.33851,0.21883 0.576161,0.34548 0.237622,0.12662 0.453708,0.25208 0.480129,0.27838 0.06504,0.065 2.904019,1.46918 3.504897,1.73354 1.280471,0.56339 3.904922,1.47644 5.185306,1.80399 1.255437,0.3212 2.095729,0.50901 2.688685,0.601 0.369702,0.0572 0.734663,0.11476 0.811008,0.12777 0.17894,0.0303 0.165642,-0.0321 0.333423,1.59117 0.130663,1.26622 0.282718,2.6078 0.685028,6.04954 0.07718,0.66016 0.313736,2.71267 0.525746,4.56115 0.392972,3.42642 0.512246,4.42969 0.865528,7.27945 0.110139,0.88767 0.186455,1.66671 0.169978,1.73117 -0.01734,0.0645 -0.505279,-0.52439 -1.086239,-1.30857 z m 76.677465,-0.20987 c -0.12922,-0.15552 -1.43085,-1.03984 -2.11444,-1.43631 -2.4014,-1.39272 -5.98163,-2.67119 -9.26636,-3.30893 -0.8622,-0.16738 -1.42871,-0.2567 -3.74495,-0.58963 -3.3013,-0.47464 -9.90239,-0.30333 -13.299402,0.3451 -1.27573,0.2434 -3.33281,0.71405 -4.17706,0.9554 -1.00516,0.28735 -2.85447,0.91178 -2.97675,1.00507 -0.0529,0.0402 -0.26885,0.12835 -0.48013,0.1957 -0.21132,0.0674 -0.89927,0.37546 -1.52891,0.68469 -0.62964,0.30925 -1.1627,0.56228 -1.18455,0.56228 -0.0231,0 0.12257,-0.29168 0.32082,-0.64817 1.26422,-2.27244 3.11692,-4.37251 5.32137,-6.03181 0.44894,-0.33788 0.85943,-0.64867 0.91224,-0.69058 0.1853,-0.14714 1.92584,-1.15151 2.44864,-1.41304 0.29046,-0.14541 0.60807,-0.30565 0.70575,-0.35629 1.23497,-0.64017 4.112802,-1.45404 6.448062,-1.82353 1.18256,-0.18704 4.94829,-0.1616 6.19358,0.0422 5.14912,0.84206 8.90852,2.68715 12.36265,6.06746 1.77026,1.73241 3.2808,3.94449 4.19128,6.13784 0.2038,0.49095 0.14194,0.63265 -0.13182,0.30261 z M 68.190168,112.51114 c -1.09359,-0.11621 -2.46049,-0.64773 -3.552888,-1.38118 -0.237622,-0.15957 -0.446047,-0.29752 -0.463074,-0.30657 -0.01734,-0.009 0.07429,-0.24745 0.202644,-0.52962 1.046058,-2.29776 2.387548,-6.50446 2.941278,-9.22335 0.94104,-4.620711 1.23266,-6.676401 1.7136,-12.079122 0.24196,-2.71924 0.24109,-11.896944 -0.002,-14.595747 -0.40147,-4.464519 -0.58127,-5.878486 -1.19062,-9.362367 -0.42133,-2.409002 -1.32063,-6.059073 -1.93995,-7.87402 -0.704305,-2.063872 -1.782074,-4.771983 -2.025449,-5.089304 -0.177494,-0.231262 -0.96792,-1.805754 -0.927102,-1.846543 0.07314,-0.07314 1.676912,1.061321 2.656711,1.879498 2.7152,2.267325 5.18011,5.342594 7.43928,9.281425 0.47134,0.821791 2.3491,4.662307 2.3491,4.804533 0,0.03035 0.0859,0.243404 0.19051,0.473481 0.47579,1.044438 1.69891,4.612094 2.15744,6.292937 0.0937,0.34328 0.20583,0.732206 0.24948,0.864228 0.13991,0.423817 0.84124,3.381518 1.00191,4.225076 0.67668,3.552884 0.9994,5.965037 1.29756,9.698478 0.28445,3.562481 0.20322,9.054186 -0.18993,12.832397 -0.31024,2.98066 -0.36438,3.30593 -0.61284,3.68141 -0.12488,0.18848 -0.32481,0.53627 -0.44455,0.77274 -0.20698,0.40896 -1.69307,2.68134 -1.81963,2.78257 -0.0329,0.026 -0.1561,0.17316 -0.27375,0.32617 -0.68662,0.89397 -2.27617,2.3851 -3.14179,2.94724 -1.28723,0.83595 -2.45731,1.2942 -3.64773,1.42865 -0.94765,0.10696 -0.93424,0.10696 -1.9685,-0.003 z m -30.923885,-3.23949 c -0.855642,-0.57833 -1.563015,-1.08378 -1.84556,-1.31886 -0.09308,-0.0775 -0.192237,-0.14078 -0.220277,-0.14078 -0.02891,0 -0.211316,-0.14599 -0.406993,-0.32417 -0.195706,-0.17837 -0.615187,-0.5328 -0.932074,-0.78777 -2.807005,-2.25862 -6.545245,-6.36029 -8.384388,-9.199561 -0.140781,-0.21739 -0.279827,-0.41685 -0.309255,-0.44324 -0.07892,-0.0711 -1.046925,-1.6428 -1.667113,-2.70681 -0.29827,-0.511728 -0.836765,-1.527173 -1.196696,-2.256603 -0.556272,-1.127433 -0.88267,-1.858251 -1.792977,-4.014888 -0.82867,-1.963244 -1.891957,-6.005652 -2.437331,-9.266364 -0.631057,-3.773074 -0.61114,-9.367512 0.04856,-13.635488 1.528875,-9.890917 6.677989,-19.223914 14.258248,-25.843663 1.745106,-1.523978 3.044627,-2.511994 4.841825,-3.681186 1.904387,-1.238948 2.347717,-1.491148 4.59102,-2.611779 0.887845,-0.443524 1.946506,-0.936618 2.352603,-1.095767 0.406067,-0.159167 0.867956,-0.348223 1.0264,-0.420158 0.42902,-0.19478 3.720693,-1.308598 3.757782,-1.271523 0.01734,0.01763 -0.350565,0.365255 -0.81812,0.772589 -1.033251,0.900154 -2.54325,2.478815 -3.179713,3.324275 -0.132108,0.175384 -0.499353,0.656369 -0.816211,1.068848 -1.151744,1.499198 -1.925722,2.691139 -3.039423,4.680833 -0.555377,0.992205 -1.694922,3.264809 -2.005768,4.000165 -0.04481,0.105514 -0.185877,0.429715 -0.313533,0.72018 -2.164067,4.919124 -4.31868,12.978963 -5.056956,18.916826 -0.04914,0.396095 -0.154368,1.217105 -0.233575,1.824458 -0.772243,5.915546 -0.922853,13.784334 -0.386873,20.213167 0.224035,2.68539 0.718532,6.724647 1.046548,8.546188 0.07603,0.42251 0.207558,1.17868 0.292229,1.68041 0.0847,0.50175 0.211894,1.17151 0.283008,1.4884 0.07082,0.31686 0.182119,0.83541 0.246872,1.15229 0.496896,2.430541 1.852787,7.370081 2.674636,9.743691 0.264506,0.76427 0.470879,1.39984 0.458362,1.41238 -0.01156,0.0116 -0.38829,-0.22432 -0.835002,-0.52618 z m 49.501825,0.34091 c 1.41841,-4.53404 2.77165,-12.169751 3.21209,-18.12464 0.65348,-8.835089 -0.0486,-20.343339 -1.67284,-27.423494 -0.0737,-0.321541 -0.2249,-1.034523 -0.33579,-1.584378 -0.22982,-1.13888 -1.23882,-5.150357 -1.35052,-5.368582 -0.0408,-0.0795 -0.14916,-0.446828 -0.24109,-0.81653 -0.28532,-1.146887 -1.86834,-5.81249 -2.05242,-6.04936 -0.041,-0.0529 -0.10205,-0.211027 -0.13558,-0.351172 -0.0546,-0.229239 -0.92892,-2.336848 -1.42776,-3.441964 -0.73963,-1.638638 -2.2616,-4.543207 -2.77789,-5.30147 -0.0974,-0.143093 -0.17721,-0.284597 -0.17721,-0.314433 0,-0.09094 -0.80464,-1.343645 -0.88507,-1.377884 -0.0413,-0.01763 -0.0752,-0.07357 -0.0752,-0.124361 0,-0.05079 -0.22374,-0.425295 -0.49712,-0.832212 -2.26981,-3.378204 -5.19196,-6.52354 -7.90501,-8.508829 -0.42252,-0.309169 -0.80292,-0.593376 -0.84535,-0.631572 -0.17287,-0.155755 2.35436,0.419001 4.06215,0.923781 4.76458,1.408304 10.09023,3.975509 13.36413,6.442109 0.29966,0.22577 0.58772,0.410497 0.64016,0.410497 0.0523,0 0.10985,0.03512 0.1272,0.07805 0.0173,0.04293 0.27925,0.25936 0.58125,0.481002 0.49678,0.364478 0.9454,0.728185 2.42753,1.968057 0.71217,0.595772 3.27542,3.162559 4.09062,4.096252 0.39084,0.447637 0.7649,0.872321 0.83128,0.943753 0.96887,1.042675 3.02982,4.013037 4.643572,6.692529 0.27347,0.453997 1.86262,3.664034 2.23431,4.513143 1.39295,3.181968 2.4789,7.013291 3.17078,11.186853 0.76097,4.590327 0.51049,11.044599 -0.62238,16.036107 -0.33525,1.477073 -0.92522,3.672215 -1.09685,4.081029 -0.0665,0.158415 -0.21565,0.568963 -0.33151,0.912243 -1.07089,3.174192 -3.848242,8.581275 -5.400822,10.514695 -0.0425,0.0529 -0.43006,0.57133 -0.86148,1.15229 -0.43139,0.580931 -0.80948,1.077861 -0.84021,1.104281 -0.0306,0.026 -0.20582,0.24253 -0.38918,0.48013 -0.58099,0.75316 -1.59377,1.85683 -2.98661,3.25452 -0.89704,0.90019 -2.01054,1.90228 -2.92165,2.62934 -0.7832,0.62502 -1.44548,1.18545 -1.47239,1.24595 -0.0173,0.0396 -0.074,0.072 -0.12517,0.072 -0.0512,0 -0.40595,0.23126 -0.78829,0.51409 -1.05354,0.77915 -1.28339,0.88094 -1.1699,0.51817 z m -35.670284,-5.58472 c -1.016658,-0.16246 -2.419207,-0.75738 -3.225907,-1.36812 -0.16333,-0.12372 -0.321282,-0.2249 -0.350825,-0.2249 -0.220856,0 -2.551316,-2.34829 -2.90029,-2.922581 -0.284164,-0.46775 -0.949997,-4.70679 -1.34323,-8.552338 -0.825751,-8.075334 -0.213339,-17.979346 1.58831,-25.686569 0.813089,-3.478214 1.936041,-7.339631 2.583085,-8.882266 0.04423,-0.105514 0.197729,-0.51612 0.340707,-0.912243 0.143093,-0.396095 0.317321,-0.849803 0.387191,-1.008246 0.06996,-0.158415 0.261615,-0.633746 0.426216,-1.056262 0.164486,-0.422517 0.410289,-1.005847 0.546069,-1.296341 0.135866,-0.290466 0.458044,-0.981853 0.716132,-1.536392 0.466312,-1.001886 1.022874,-2.105875 1.524915,-3.024767 0.889609,-1.62826 0.75698,-1.401536 1.800956,-3.078593 0.491143,-0.789009 1.247342,-1.926531 1.68041,-2.527813 0.433068,-0.601282 0.830636,-1.161212 0.883451,-1.244264 0.0529,-0.08305 0.15061,-0.210593 0.217387,-0.283412 0.06678,-0.07282 0.239356,-0.290699 0.383519,-0.484179 0.239646,-0.321611 1.658961,-2.032926 1.892536,-2.281805 0.05463,-0.05805 0.421071,-0.457761 0.814621,-0.888227 0.393551,-0.430465 0.74559,-0.782666 0.782332,-0.782666 0.03671,0 -0.127194,0.486124 -0.364238,1.080275 -1.026169,2.571721 -2.50937,7.164574 -2.938188,9.098332 -0.0292,0.132108 -0.180674,0.736975 -0.336314,1.344328 -0.393753,1.536044 -0.744896,3.117156 -0.980986,4.41714 -0.110427,0.607352 -0.24138,1.320334 -0.291101,1.584407 -0.295409,1.566687 -0.396933,2.187539 -0.612238,3.744947 -1.444378,10.447363 -1.44617,20.43752 -0.0058,31.143319 0.494844,3.677447 1.972697,10.620695 2.813827,13.219996 0.222879,0.68856 0.263061,0.604 -0.536008,1.12946 -1.782455,1.17227 -3.56861,1.58813 -5.496875,1.27983 z"
     id="path3" /><path
     style="font-variation-settings:'wght' 300;fill:#611329;fill-opacity:1;stroke:#611329;stroke-width:10;stroke-miterlimit:4;stroke-dasharray:none;stroke-opacity:1;marker-end:url(#Triangle)"
     d="m 137.98797,139.84315 h 91.96912"
     id="path4" /><text
     xml:space="preserve"
     style="font-style:normal;font-variant:normal;font-weight:normal;font-stretch:normal;font-size:7.44048px;font-family:'DejaVu Sans';-inkscape-font-specification:'DejaVu Sans, Normal';font-variant-ligatures:normal;font-variant-caps:normal;font-variant-numeric:normal;font-variant-east-asian:normal;text-align:start;writing-mode:lr-tb;direction:ltr;text-anchor:start;fill:#611329;fill-opacity:1;stroke:#740021;stroke-width:0.4;stroke-miterlimit:4;stroke-dasharray:none;stroke-opacity:1"
     x="130.19481"
     y="72.307976"
     id="text4"><tspan
       sodipodi:role="line"
       id="tspan4"
       style="font-style:normal;font-variant:normal;font-weight:normal;font-stretch:normal;font-size:7.44048px;font-family:'DejaVu Sans';-inkscape-font-specification:'DejaVu Sans, Normal';font-variant-ligatures:normal;font-variant-caps:normal;font-variant-numeric:normal;font-variant-east-asian:normal;stroke-width:0.4;stroke-dasharray:none"
       x="130.19481"
       y="72.307976">MATIES TABLE TENNIS</tspan></text><text
     xml:space="preserve"
     style="font-style:normal;font-variant:normal;font-weight:normal;font-stretch:normal;font-size:5.0123px;font-family:'DejaVu Sans';-inkscape-font-specification:'DejaVu Sans, Normal';font-variant-ligatures:normal;font-variant-caps:normal;font-variant-numeric:normal;font-variant-east-asian:normal;text-align:start;writing-mode:lr-tb;direction:ltr;text-anchor:start;fill:#611329;fill-opacity:1;stroke:#000000;stroke-width:0.269461;stroke-miterlimit:4;stroke-dasharray:none;stroke-opacity:1"
     x="151.52423"
     y="96.035942"
     id="text4-4"><tspan
       sodipodi:role="line"
       id="tspan4-0"
       style="font-style:normal;font-variant:normal;font-weight:normal;font-stretch:normal;font-size:5.0123px;font-family:'DejaVu Sans';-inkscape-font-specification:'DejaVu Sans, Normal';font-variant-ligatures:normal;font-variant-caps:normal;font-variant-numeric:normal;font-variant-east-asian:normal;stroke:#000000;stroke-width:0.269461;stroke-dasharray:none;stroke-opacity:1"
       x="151.52423"
       y="96.035942">Mon-Fri 7-9pm</tspan></text></svg>
